<svg width="56" height="56" viewBox="0 0 56 56" fill="none" xmlns="http://www.w3.org/2000/svg">
<mask id="mask0" mask-type="alpha" maskUnits="userSpaceOnUse" x="1" y="0" width="54" height="55">
<path fill-rule="evenodd" clip-rule="evenodd" d="M1.21741 0.630951H54.2348V54.8265H1.21741V0.630951Z" fill="white"/>
</mask>
<g mask="url(#mask0)">
<path fill-rule="evenodd" clip-rule="evenodd" d="M19.7826 42.1954C10.0435 28.9421 8.27828 26.9509 6.6348 24.6487C6.6348 24.6487 13.8174 22.7821 19.2957 29.5021C19.9044 30.1865 25.0783 36.7198 27.6957 39.7065C37.2522 50.9065 43.3391 49.7243 48.087 43.6887C47.3565 43.9376 46.5652 44.0621 45.8348 44.1243C41.3305 44.4354 36.5826 41.5732 31.1652 35.2887L26.1131 29.3776C19.2348 21.3509 14.5478 16.9954 14.5478 16.9954C14.6087 16.9332 22.887 14.1954 28.9739 20.7909C34.3305 26.5154 38.3478 30.9332 38.3478 30.9332C42.9131 35.7243 46.3218 37.8398 49.0609 37.2176C51.0696 36.7198 52.287 34.8532 53.1392 32.9243C52.4087 33.2976 51.6174 33.5465 50.7652 33.5465C48.7565 33.6087 46.6261 32.4265 44.2522 29.9998C37.4348 22.9065 29.5826 14.1954 29.5826 14.1954C29.5826 14.1954 37.3739 12.8887 42.3652 17.3687C47.6609 22.1598 49.9739 26.2043 54.2348 26.7021C53.687 12.2043 42.0609 0.630951 27.7565 0.630951C13.087 0.630951 1.21741 12.7643 1.21741 27.6976C1.21741 42.6932 13.087 54.7643 27.6957 54.7643C31.2261 54.7643 33.7826 54.2043 36.887 52.8976C32.5652 52.2754 27.4522 52.6487 19.7826 42.1954Z" fill="#00EB84"/>
</g>
</svg>
