<svg width="25" height="25" viewBox="0 0 25 25" fill="none" xmlns="http://www.w3.org/2000/svg">
<g clip-path="url(#clip0)">
<path d="M3.32031 13.8437V11.8477H7.76463L9.71775 13.8437H3.32031ZM22.9267 21.5282L24.9825 23.584L23.6015 24.9651L0.0175476 1.38111L1.39847 0L4.69551 3.29685H22.0703C23.6858 3.29685 25 4.61121 25 6.22654V18.7265C25 20.0441 24.1257 21.1611 22.9267 21.5282ZM6.64864 5.24998L8.90064 7.50198H23.0469V6.22654C23.0469 5.6881 22.6088 5.24998 22.0703 5.24998H6.64864ZM23.0469 18.7265V10.4258H11.8244L13.2952 11.8965H16.2598V13.8437H15.2422L21.1016 19.7031H22.0703C22.6088 19.7031 23.0469 19.265 23.0469 18.7265ZM2.92969 19.709C2.39124 19.709 1.95312 19.265 1.95312 18.7265V10.4258H6.27213L3.34244 7.50198H1.95312V6.22654C1.95312 6.18839 1.9558 6.15101 1.96018 6.11382L0.475502 4.62933C0.175285 5.08919 0 5.63755 0 6.22654V18.7265C0 20.3421 1.31416 21.6562 2.92969 21.6562H17.5024L15.5493 19.709H2.92969Z" fill="#EFEFED"/>
</g>
<defs>
<clipPath id="clip0">
<rect width="25" height="25" fill="white"/>
</clipPath>
</defs>
</svg>
