<svg width="25" height="25" viewBox="0 0 25 25" fill="none" xmlns="http://www.w3.org/2000/svg">
<g clip-path="url(#clip0)">
<path d="M3.56297 10.9375H-0.343277C-0.990494 10.9375 -1.51515 11.4622 -1.51515 12.1094V23.8281C-1.51515 24.4753 -0.990494 25 -0.343277 25H3.56297C4.21019 25 4.73485 24.4753 4.73485 23.8281V12.1094C4.73485 11.4622 4.21019 10.9375 3.56297 10.9375ZM1.60985 23.0469C0.962631 23.0469 0.437973 22.5222 0.437973 21.875C0.437973 21.2278 0.962631 20.7031 1.60985 20.7031C2.25706 20.7031 2.78172 21.2278 2.78172 21.875C2.78172 22.5222 2.25706 23.0469 1.60985 23.0469ZM17.2348 3.97715C17.2348 6.04824 15.9668 7.20996 15.61 8.59375H20.5769C22.2077 8.59375 23.4772 9.94854 23.4848 11.4306C23.4889 12.3064 23.1163 13.2494 22.5356 13.8328L22.5303 13.8381C23.0105 14.9776 22.9325 16.5743 22.0758 17.7185C22.4996 18.9829 22.0724 20.536 21.2759 21.3687C21.4857 22.228 21.3854 22.9593 20.9757 23.548C19.9791 24.9798 17.5091 25 15.4203 25L15.2814 25C12.9237 24.9991 10.994 24.1407 9.44354 23.4509C8.66439 23.1042 7.64564 22.6751 6.87269 22.6609C6.55335 22.6551 6.29735 22.3945 6.29735 22.0751V11.6371C6.29735 11.4809 6.35995 11.3309 6.47108 11.221C8.40536 9.30972 9.23709 7.28613 10.8225 5.69805C11.5453 4.97383 11.8082 3.87988 12.0624 2.82197C12.2795 1.9186 12.7337 0 13.7192 0C14.8911 0 17.2348 0.390625 17.2348 3.97715Z" fill="#EFEFED"/>
</g>
<defs>
<clipPath id="clip0">
<rect width="25" height="25" fill="white"/>
</clipPath>
</defs>
</svg>
