<svg width="230" height="198" viewBox="0 0 230 198" class="css-1j8o68f"><defs id="SvgjsDefs1836"></defs><g id="SvgjsG1837" featurekey="rootContainer" transform="matrix(1,0,0,1,0,0)" fill="#00eb84"><rect xmlns="http://www.w3.org/2000/svg" width="230" height="198" rx="10" ry="10"></rect></g><g id="SvgjsG1838" featurekey="symbolFeature-0" transform="matrix(1.0006433725357056,0,0,1.0006433725357056,65.29762258220562,18.536558378521942)" fill="#ffffff"><polygon xmlns="http://www.w3.org/2000/svg" points="54,40.7 59.8,44.3 52.2,52.3 42,45.4 26.5,63.2 32,68 43.3,55.1 53.2,61.8 66.1,48.3 72.3,52.1   71.1,34.9 "></polygon><path xmlns="http://www.w3.org/2000/svg" d="M94.2,50.2c-1.1,0-2,0.9-2,2c0,23.3-18.9,42.2-42.2,42.2S7.7,75.5,7.7,52.3C7.7,30,25,11.7,47,10.1l-1.8,1.4  c-0.9,0.7-1.1,2-0.4,2.9c0.4,0.5,1,0.8,1.6,0.8c0.4,0,0.9-0.1,1.2-0.4l6.8-5.2c0.5-0.4,0.8-1,0.8-1.7c0-0.7-0.4-1.3-0.9-1.6  l-6.8-4.5c-0.9-0.6-2.2-0.4-2.8,0.6c-0.6,0.9-0.4,2.2,0.6,2.8l1.4,0.9c-24,1.7-43,21.8-43,46.2c0,25.5,20.8,46.3,46.3,46.3  s46.3-20.8,46.3-46.3C96.2,51.1,95.3,50.2,94.2,50.2z"></path><circle xmlns="http://www.w3.org/2000/svg" cx="92.7" cy="41.5" r="2.5"></circle><circle xmlns="http://www.w3.org/2000/svg" cx="89.4" cy="32.2" r="2.5"></circle><circle xmlns="http://www.w3.org/2000/svg" cx="83.4" cy="23.5" r="2.5"></circle><circle xmlns="http://www.w3.org/2000/svg" cx="75.1" cy="16" r="2.5"></circle><circle xmlns="http://www.w3.org/2000/svg" cx="65.2" cy="10.8" r="2.5"></circle></g><g id="SvgjsG1839" featurekey="nameFeature-0" transform="matrix(1.5079364776611328,0,0,1.5079364776611328,19.396827410137842,115.75349937923372)" fill="#ffffff"><path d="M7.8 40.32 c-2.76 -0.24 -7.4 -3.4 -7.4 -3.4 l1.6 -4.44 s3.72 3.32 5.88 3.12 s3.36 -2.04 2.92 -4.24 c-0.92 -4.68 -8.52 -4.96 -8.52 -9.32 s3.08 -7.24 5.52 -7.36 c3.88 -0.2 5.92 1.76 5.92 1.76 c-0.2 0.28 -1.32 2.64 -1.32 2.64 s-4.08 -1.48 -4.76 2 c-0.92 4.64 8.24 4.2 8.4 10.44 c0.2 7.08 -5.52 9.04 -8.24 8.8 z M29.32 41.6 l-10.92 -0.2 l-0.56 -24.04 l10.68 -1.4 l-0.12 4.52 l-6.12 0 l0 7.64 l5.12 -0.44 l0.28 4.56 l-5.2 -0.08 l-0.28 5.8 l7.52 -0.28 z M43.720000000000006 41.48 l-10.84 -0.24 l0.08 -25.56 l4.8 -0.16 l-1.28 21.56 l7.24 0.56 l0 3.84 z M57.32000000000001 41.48 l-10.84 -0.24 l0.08 -25.56 l4.8 -0.16 l-1.28 21.56 l7.24 0.56 l0 3.84 z M74.32000000000001 40.56 l-2.84 -17.88 l-0.88 11.76 l-3.72 -0.12 l-3.76 -10.08 l0.36 16.08 l-4.76 -0.36 l1.24 -22.16 l4.32 -1.24 l3.28 8.04 l1.8 -8.16 l5.52 -0.56 l3.64 23.52 z M87.28000000000002 41.52 c-10.68 0.44 -9.16 -26.16 1.16 -26.16 c10.4 0 9.8 25.72 -1.16 26.16 z M88.32000000000001 35.92 c2.56 0.08 3.4 -6.28 3.52 -9.2 s-0.8 -7 -3.24 -6.92 s-3.76 6.32 -3.68 8.72 c0.12 3.08 0.8 7.32 3.4 7.4 z M108.24000000000001 40.04 l-4.6 -10.32 c-0.44 0.08 -0.84 0.16 -1.2 0.2 l0.2 10.52 l-4.96 -0.36 l0.44 -25.36 l4.32 -0.56 c4.28 -0.56 8.04 2.28 8.28 6.72 c0.16 2.96 -0.88 5.4 -3.04 7.04 l4.64 9.44 z M102.28000000000002 22.4 l0.04 1.12 c0.68 0.12 4.04 0.48 4.2 -2.04 c0.2 -3.68 -2.56 -2.76 -3.92 -2.56 z M126.00000000000001 41.6 l-10.92 -0.2 l-0.56 -24.04 l10.68 -1.4 l-0.12 4.52 l-6.12 0 l0 7.64 l5.12 -0.44 l0.28 4.56 l-5.2 -0.08 l-0.28 5.8 l7.52 -0.28 z"></path></g></svg>
