<svg width="33" height="33" viewBox="0 0 33 33" fill="none" xmlns="http://www.w3.org/2000/svg">
<path d="M0 3.60938V19.0781C0 19.9325 0.692549 20.625 1.54688 20.625H6.70312C7.55745 20.625 8.25 19.9325 8.25 19.0781V3.60938C8.25 2.75505 7.55745 2.0625 6.70312 2.0625H1.54688C0.692549 2.0625 0 2.75505 0 3.60938ZM2.57812 16.5C2.57812 15.6457 3.27067 14.9531 4.125 14.9531C4.97933 14.9531 5.67188 15.6457 5.67188 16.5C5.67188 17.3543 4.97933 18.0469 4.125 18.0469C3.27067 18.0469 2.57812 17.3543 2.57812 16.5ZM20.1094 33C18.8085 33 18.209 30.4674 17.9224 29.2749C17.5869 27.8785 17.2399 26.4345 16.2858 25.4785C14.193 23.3822 13.0951 20.7111 10.5419 18.1882C10.4692 18.1163 10.4116 18.0308 10.3722 17.9365C10.3328 17.8423 10.3126 17.7411 10.3126 17.639V3.86081C10.3126 3.43922 10.6505 3.09523 11.072 3.0875C12.0924 3.06881 13.4371 2.50233 14.4655 2.04478C16.5122 1.13425 19.0594 0.0010957 22.1716 0H22.3549C25.112 0 28.3724 0.0266191 29.6879 1.91664C30.2288 2.69375 30.3612 3.65907 30.0842 4.79331C31.1356 5.89243 31.6996 7.94269 31.1401 9.61164C32.2708 11.1219 32.3739 13.2295 31.74 14.7337L31.7471 14.7408C32.5136 15.5109 33.0054 16.7555 33 17.9117C32.9899 19.8679 31.3141 21.6562 29.1616 21.6562H22.6052C23.0762 23.4829 24.75 25.0163 24.75 27.7502C24.75 32.4844 21.6562 33 20.1094 33Z" fill="#FF8888"/>
</svg>
